<?xml version="1.0" standalone="no"?>
<!DOCTYPE svg PUBLIC "-//W3C//DTD SVG 20010904//EN"
 "http://www.w3.org/TR/2001/REC-SVG-20010904/DTD/svg10.dtd">
<svg version="1.0" xmlns="http://www.w3.org/2000/svg"
 width="2048.000000pt" height="2048.000000pt" viewBox="0 0 2048.000000 2048.000000"
 preserveAspectRatio="xMidYMid meet">

<g transform="translate(0.000000,2048.000000) scale(0.100000,-0.100000)"
fill="#ffffff" stroke="none">
<path d="M10385 20127 c-16 -22 -38 -90 -75 -232 -47 -180 -226 -587 -347
-793 -24 -40 -43 -75 -43 -78 0 -21 -218 -301 -326 -419 -165 -181 -442 -453
-659 -647 -22 -20 -98 -82 -170 -138 -71 -56 -148 -119 -170 -139 -22 -21 -52
-46 -66 -57 -82 -60 -157 -117 -259 -199 -216 -172 -315 -250 -395 -310 -44
-34 -129 -101 -189 -150 -60 -50 -168 -136 -240 -193 -72 -57 -160 -129 -196
-160 -36 -32 -96 -82 -134 -112 -37 -30 -107 -87 -155 -126 -124 -103 -715
-703 -791 -804 -35 -47 -105 -139 -155 -205 -161 -214 -325 -493 -406 -690
-42 -101 -69 -176 -88 -245 -12 -41 -25 -89 -31 -105 -18 -58 -58 -230 -72
-310 -9 -57 -13 -182 -12 -435 1 -352 8 -467 41 -712 9 -70 14 -130 10 -134
-4 -4 -44 -13 -89 -21 -46 -7 -103 -17 -128 -22 -84 -16 -400 -100 -433 -115
-17 -8 -52 -21 -77 -30 -61 -20 -165 -63 -220 -90 -25 -13 -94 -46 -155 -75
-353 -169 -788 -498 -1013 -766 -111 -133 -261 -337 -326 -445 -109 -181 -346
-681 -346 -730 0 -9 -4 -20 -9 -25 -10 -11 -71 -215 -90 -305 -7 -30 -19 -82
-27 -115 -40 -173 -62 -390 -41 -412 13 -12 51 41 66 94 8 27 18 55 23 63 16
30 98 210 98 215 0 6 40 93 143 315 64 138 165 297 282 444 163 204 533 537
739 664 53 32 198 120 281 170 109 66 268 138 400 182 72 24 165 58 207 76
159 68 295 102 488 123 280 31 712 51 1025 48 209 -2 275 17 275 79 0 13 -23
94 -50 179 -56 174 -164 602 -182 722 -17 113 -16 709 0 792 40 195 165 577
233 713 73 146 173 306 249 398 25 30 60 76 78 102 47 68 432 451 547 543 55
43 127 105 160 136 33 31 88 76 122 100 147 105 213 153 283 209 41 33 132
102 201 153 70 52 137 104 150 117 37 34 194 153 273 206 21 14 57 43 80 63
22 21 100 82 171 136 198 150 289 227 415 349 63 62 144 134 180 160 101 75
274 254 441 459 35 42 107 130 160 195 53 64 140 182 192 262 114 173 122 182
150 178 25 -4 52 -39 177 -238 52 -83 147 -215 210 -293 138 -171 528 -566
695 -703 66 -54 167 -139 225 -189 190 -164 297 -248 510 -400 30 -22 75 -56
100 -76 213 -171 520 -413 633 -498 77 -58 196 -159 265 -226 70 -66 151 -143
181 -170 29 -28 96 -99 149 -160 52 -60 123 -139 157 -175 158 -165 404 -523
503 -730 91 -192 186 -504 228 -750 11 -67 16 -164 17 -325 1 -223 0 -235 -30
-375 -17 -80 -45 -208 -61 -286 -30 -141 -42 -176 -122 -353 -24 -52 -45 -113
-48 -136 -4 -39 -1 -44 29 -67 37 -28 50 -33 224 -80 l120 -32 430 -1 c277 -1
448 -5 480 -12 28 -6 79 -17 115 -23 90 -17 350 -84 443 -115 43 -14 148 -57
235 -96 360 -161 513 -253 802 -484 91 -72 203 -160 250 -196 168 -127 213
-179 412 -477 264 -394 332 -515 387 -692 56 -178 68 -207 77 -185 9 23 -10
295 -30 415 -8 47 -20 121 -26 165 -25 162 -66 279 -195 550 -97 205 -233 445
-315 555 -15 19 -59 80 -100 135 -127 173 -430 460 -620 587 -14 10 -61 42
-105 73 -119 83 -246 156 -396 229 -151 73 -414 186 -431 186 -6 0 -43 11 -82
24 -156 53 -274 85 -341 91 -87 9 -135 31 -203 92 -50 46 -53 52 -63 118 -14
88 -8 180 26 375 40 227 46 553 16 766 -56 389 -207 819 -376 1069 -26 39 -64
98 -85 132 -64 105 -213 302 -358 475 -169 202 -621 636 -946 909 -15 13 -45
38 -65 55 -20 17 -97 80 -171 139 -74 60 -175 143 -225 185 -49 41 -144 116
-210 165 -66 49 -156 118 -200 155 -44 36 -114 91 -155 122 -164 126 -246 191
-389 314 -20 17 -45 37 -57 45 -11 8 -41 30 -65 50 -24 21 -91 74 -147 120
-211 168 -499 440 -626 589 -232 273 -467 637 -557 863 -25 61 -143 408 -187
549 -49 154 -75 190 -107 145z"/>
<path d="M10239 16433 c-34 -38 -51 -67 -79 -138 -13 -33 -38 -89 -56 -125
-98 -194 -117 -359 -80 -675 10 -77 22 -212 27 -300 24 -392 29 -469 38 -610
6 -82 15 -206 21 -275 5 -69 15 -186 20 -260 22 -287 31 -388 40 -480 22 -226
65 -864 110 -1630 6 -102 15 -228 20 -280 5 -52 14 -176 20 -275 6 -99 17
-254 25 -345 8 -91 17 -223 20 -295 3 -71 10 -177 15 -235 6 -58 17 -206 25
-330 9 -124 20 -270 25 -325 5 -55 16 -190 24 -300 14 -187 22 -275 46 -515 6
-52 15 -171 20 -265 6 -93 13 -181 15 -195 3 -14 10 -150 16 -303 15 -373 8
-667 -19 -817 -26 -142 -50 -255 -62 -295 -10 -33 -36 -227 -46 -341 -4 -46
-2 -80 5 -93 48 -88 190 105 353 479 86 197 174 659 208 1094 18 235 7 1019
-20 1321 -5 61 -14 173 -20 250 -6 77 -17 221 -25 320 -8 99 -19 252 -25 340
-6 88 -15 198 -20 245 -6 47 -17 182 -25 300 -8 118 -24 287 -35 375 -20 159
-54 507 -66 660 -3 44 -14 152 -24 240 -21 179 -34 345 -50 610 -6 99 -16 225
-21 280 -5 55 -16 199 -23 320 -15 232 -31 424 -46 565 -58 541 -64 602 -54
618 16 24 47 26 67 4 22 -24 137 -199 181 -277 46 -79 87 -119 114 -111 32 11
57 88 56 176 0 62 -8 98 -46 210 -26 74 -65 180 -88 235 -74 176 -90 225 -121
374 -56 271 -154 590 -246 798 -29 67 -53 127 -53 133 0 14 -47 107 -72 143
-11 16 -29 27 -42 27 -12 0 -34 -12 -47 -27z"/>
<path d="M11824 15519 c-23 -8 -77 -94 -113 -178 -26 -60 -24 -112 6 -159 10
-15 92 -104 184 -199 218 -224 273 -312 348 -550 59 -186 64 -220 65 -465 1
-213 7 -251 34 -234 18 11 73 137 93 214 46 177 47 438 4 627 -35 148 -173
471 -251 586 -101 148 -285 349 -331 361 -10 3 -28 2 -39 -3z"/>
<path d="M8580 15088 c-42 -37 -96 -118 -129 -193 -17 -38 -47 -99 -65 -135
-76 -143 -185 -431 -201 -531 -4 -24 -11 -49 -16 -55 -5 -7 -17 -52 -25 -100
-38 -211 19 -465 128 -574 52 -52 86 -70 147 -77 41 -5 57 -1 101 23 133 73
253 286 276 491 11 107 -14 104 -92 -13 -60 -91 -100 -132 -148 -154 -69 -32
-127 9 -172 119 -51 126 -43 291 27 586 43 177 83 310 117 386 11 24 25 60 32
79 7 19 16 44 20 55 25 63 31 85 28 99 -2 14 -7 13 -28 -6z"/>
<path d="M13030 13584 c-14 -3 -54 -19 -89 -37 -76 -38 -140 -110 -205 -230
-94 -176 -217 -592 -252 -851 -21 -162 -35 -211 -59 -211 -15 0 -29 28 -72
140 -99 260 -115 300 -174 418 -52 105 -87 164 -177 299 -42 64 -175 183 -235
212 -74 34 -145 50 -191 42 -58 -11 -100 -63 -178 -223 -127 -262 -108 -333
118 -431 155 -67 175 -70 305 -47 21 4 46 2 57 -4 35 -19 212 -347 260 -481
38 -107 102 -314 153 -490 35 -124 63 -138 129 -62 90 101 163 328 214 662 81
526 133 711 232 820 46 51 86 64 150 50 61 -14 102 -45 166 -126 58 -75 79
-89 107 -74 26 14 68 105 87 190 28 123 -1 216 -102 329 -69 77 -164 118 -244
105z"/>
<path d="M8585 12391 c-76 -34 -201 -205 -282 -386 -45 -98 -138 -464 -152
-597 -4 -37 -10 -71 -15 -75 -18 -19 -43 21 -74 118 -46 147 -67 198 -134 334
-116 236 -280 412 -416 447 -60 15 -102 -8 -159 -86 -116 -158 -154 -279 -108
-343 30 -41 171 -131 233 -149 51 -15 56 -15 112 6 87 33 102 20 209 -176 50
-90 86 -174 115 -265 54 -166 90 -322 82 -353 -3 -14 -26 -48 -51 -77 -33 -39
-52 -74 -70 -132 -41 -130 -30 -168 36 -128 48 30 130 25 209 -12 80 -37 80
-68 -1 -91 -87 -24 -227 -98 -276 -145 -102 -99 -161 -235 -170 -393 -6 -96 5
-187 43 -343 56 -232 128 -570 159 -755 21 -120 59 -268 73 -282 21 -21 34 67
39 258 7 239 -12 374 -99 719 -16 66 -33 138 -37 160 -5 22 -15 67 -24 100
-25 98 -29 142 -17 179 13 40 80 105 138 135 50 26 297 96 372 106 120 16 200
62 245 139 50 86 43 170 -23 272 -56 85 -129 152 -229 210 -111 64 -116 74
-84 192 24 92 49 209 75 357 21 122 50 249 76 337 47 160 65 214 82 250 10 20
18 41 18 46 0 4 15 25 34 45 31 34 38 37 91 37 67 0 84 -8 152 -71 28 -27 58
-49 66 -49 50 0 107 108 107 203 0 62 -50 176 -96 219 -62 58 -170 75 -249 39z"/>
<path d="M15180 11486 c-69 -23 -145 -50 -170 -58 -25 -9 -133 -44 -240 -78
-198 -63 -341 -113 -372 -131 -10 -5 -24 -9 -32 -9 -7 0 -38 -11 -67 -24 -30
-13 -102 -40 -159 -59 -58 -20 -177 -61 -265 -92 -88 -31 -209 -74 -270 -95
-115 -40 -163 -57 -361 -134 -67 -25 -124 -46 -128 -46 -3 0 -25 -8 -49 -19
-23 -10 -55 -23 -72 -29 -32 -12 -257 -98 -290 -112 -191 -79 -485 -197 -565
-226 -141 -51 -369 -159 -440 -209 -146 -101 -218 -170 -285 -272 -44 -69 -53
-143 -17 -143 9 0 72 34 141 75 91 54 162 86 256 119 72 24 159 56 195 70 36
14 128 48 205 76 77 28 178 67 225 86 47 20 121 49 165 66 44 16 99 39 122 49
24 10 47 19 52 19 6 0 52 18 103 41 51 22 125 52 163 65 39 14 93 34 120 44
181 67 223 83 250 95 55 24 169 67 265 101 52 18 127 45 165 59 39 15 129 47
200 71 72 25 180 65 240 89 125 49 222 85 585 216 140 50 281 105 313 121 98
49 166 135 196 245 24 87 0 90 -179 29z"/>
<path d="M5168 11272 c-27 -31 -56 -86 -82 -157 -15 -38 -36 -92 -46 -120 -45
-117 -64 -233 -64 -400 -1 -148 1 -167 26 -245 39 -121 80 -160 169 -160 50 0
131 40 159 79 25 36 80 166 80 190 0 10 4 21 9 27 9 9 31 102 31 129 0 31 -27
12 -75 -51 -27 -36 -62 -72 -77 -80 -89 -47 -169 29 -184 177 -10 100 26 344
72 487 16 48 19 128 5 136 -4 3 -15 -2 -23 -12z"/>
<path d="M9503 10687 c-22 -24 -113 -163 -113 -173 0 -3 -15 -41 -34 -84 -89
-201 -134 -400 -143 -626 -8 -193 16 -289 92 -373 118 -130 266 -35 356 228
37 106 16 119 -67 41 -46 -44 -58 -50 -95 -50 -77 0 -142 72 -159 174 -19 117
56 452 154 691 58 140 62 231 9 172z"/>
<path d="M14452 10302 c-34 -48 -69 -100 -78 -117 -38 -72 -84 -164 -84 -169
0 -4 -9 -25 -19 -49 -51 -112 -73 -271 -50 -367 17 -73 48 -118 110 -160 49
-33 57 -35 128 -34 90 1 135 14 212 60 107 64 129 99 148 235 14 98 0 179 -43
253 -38 65 -146 159 -232 202 -41 20 -77 41 -80 45 -3 5 6 28 19 51 13 24 34
60 46 81 26 46 26 57 4 57 -11 -1 -44 -37 -81 -88z m-24 -347 c124 -57 282
-193 282 -242 0 -11 -27 -26 -96 -53 -18 -6 -74 -12 -125 -13 -78 -2 -100 1
-129 18 -72 42 -83 110 -38 235 11 30 21 61 23 68 6 18 23 15 83 -13z"/>
<path d="M5692 9849 c-83 -42 -126 -114 -280 -464 -60 -137 -136 -444 -147
-595 -8 -101 -20 -140 -46 -140 -22 0 -41 35 -58 105 -41 167 -158 422 -273
590 -169 250 -271 335 -400 335 -58 0 -60 -1 -111 -52 -29 -29 -59 -66 -67
-83 -8 -16 -22 -41 -30 -55 -32 -49 -70 -161 -70 -205 0 -37 6 -52 36 -84 34
-38 56 -53 206 -135 77 -42 134 -48 163 -16 47 52 114 8 202 -134 97 -155 206
-427 257 -641 32 -131 38 -150 52 -172 34 -53 93 -8 161 123 51 98 64 146 113
437 22 127 52 282 66 342 14 61 29 128 34 150 38 170 118 315 190 345 18 7 50
10 78 7 44 -5 52 -10 128 -92 67 -73 84 -86 102 -81 53 17 114 145 115 241 1
105 -66 206 -175 261 -75 39 -185 44 -246 13z"/>
<path d="M2868 9532 c-40 -36 -185 -222 -196 -252 -3 -8 -16 -30 -29 -49 -28
-42 -58 -105 -117 -248 -77 -189 -149 -499 -165 -719 -11 -151 1 -402 25 -514
9 -41 20 -94 24 -117 16 -74 88 -278 121 -339 18 -32 38 -70 45 -84 7 -14 21
-34 31 -45 10 -11 41 -51 68 -90 118 -168 372 -378 569 -471 154 -73 383 -154
511 -180 39 -8 108 -23 155 -34 94 -21 220 -43 350 -62 119 -17 968 -17 1105
1 384 48 944 164 1505 312 157 42 255 76 345 123 28 14 124 48 215 75 91 28
192 60 225 71 33 12 107 37 165 55 129 42 234 82 320 123 36 17 108 48 160 68
122 47 225 99 364 183 122 73 194 100 551 204 364 107 431 109 451 11 5 -24
-5 -51 -44 -127 -62 -118 -76 -139 -272 -402 -86 -115 -165 -223 -176 -240
-10 -16 -63 -90 -119 -163 -169 -225 -222 -303 -269 -399 -55 -111 -86 -217
-86 -294 0 -72 7 -89 34 -89 30 0 80 55 162 175 37 55 93 136 124 180 31 44
87 125 125 180 37 55 98 136 134 180 88 106 212 262 238 300 148 213 226 317
290 386 104 109 119 130 163 224 66 142 130 407 130 539 -1 87 -22 179 -53
223 -83 119 -280 192 -444 164 -164 -29 -361 -87 -518 -151 -11 -5 -63 -27
-115 -49 -52 -22 -151 -63 -220 -91 -69 -29 -143 -60 -165 -70 -22 -10 -69
-28 -105 -39 -36 -12 -73 -26 -82 -31 -10 -6 -26 -10 -36 -10 -10 0 -22 -4
-27 -8 -6 -4 -28 -14 -50 -21 -22 -7 -59 -21 -82 -32 -24 -10 -50 -19 -58 -19
-8 0 -23 -4 -33 -10 -9 -5 -42 -20 -72 -33 -30 -14 -75 -34 -100 -45 -159 -71
-222 -96 -360 -147 -85 -31 -177 -65 -204 -76 -27 -10 -56 -19 -66 -19 -9 0
-19 -3 -22 -6 -9 -8 -191 -72 -283 -98 -44 -13 -118 -35 -165 -50 -263 -80
-737 -175 -1060 -210 -80 -9 -179 -21 -220 -26 -391 -50 -1036 -43 -1370 14
-389 68 -534 112 -811 250 -255 128 -396 231 -513 377 -222 278 -285 705 -164
1104 17 55 46 129 65 165 160 300 175 331 180 390 11 115 -14 141 -79 82z"/>
<path d="M12330 9249 c-92 -7 -166 -23 -240 -51 -47 -17 -184 -106 -242 -157
-53 -47 -146 -181 -181 -261 -46 -105 -97 -340 -97 -444 0 -53 34 -176 65
-236 75 -145 236 -300 537 -517 172 -123 283 -214 299 -245 23 -43 26 -41
-471 -242 -91 -37 -178 -73 -195 -81 -16 -7 -64 -28 -105 -45 -41 -18 -100
-44 -130 -58 -30 -13 -98 -44 -150 -67 -379 -170 -663 -330 -900 -508 -96 -72
-486 -416 -550 -484 -30 -32 -84 -94 -120 -137 -36 -43 -112 -133 -170 -198
-58 -66 -127 -146 -155 -178 -331 -383 -536 -587 -748 -744 -53 -39 -148 -80
-258 -112 -167 -48 -394 -34 -506 31 -114 67 -228 224 -258 356 -28 126 -30
265 -5 454 33 256 74 415 144 569 44 96 56 130 205 602 45 141 67 245 57 269
-3 8 -14 15 -25 15 -36 0 -142 -153 -226 -325 -48 -100 -67 -144 -126 -300
-10 -27 -46 -117 -79 -200 -119 -294 -173 -476 -203 -680 -42 -292 26 -603
191 -880 85 -143 273 -354 378 -424 109 -73 307 -142 452 -157 63 -7 178 8
257 33 47 15 238 138 385 248 140 104 482 485 822 915 32 40 104 122 160 183
57 60 115 124 130 141 24 28 122 118 318 291 131 116 341 263 485 340 130 69
199 107 210 115 11 8 101 48 315 140 244 104 369 160 527 237 84 40 203 91
265 113 62 23 174 70 248 105 163 78 186 84 222 56 22 -18 27 -31 33 -93 8
-88 32 -214 46 -239 24 -46 50 -13 85 106 28 97 44 196 44 281 0 76 9 85 150
155 525 259 940 449 983 449 46 0 52 -20 39 -144 -24 -225 -15 -292 60 -443
74 -150 186 -232 382 -278 138 -33 271 -31 421 4 22 5 63 15 90 21 173 42 374
130 510 224 270 188 592 541 713 782 17 34 37 64 45 67 17 6 52 -12 134 -69
115 -81 728 -390 863 -434 276 -92 406 -81 532 43 116 113 190 297 254 627 51
267 -38 759 -190 1058 -36 70 -226 302 -248 302 -5 0 -22 9 -37 20 -54 38
-207 76 -273 67 -228 -30 -253 -44 -509 -277 -47 -43 -100 -91 -118 -106 -37
-31 -205 -252 -279 -369 -69 -107 -159 -234 -314 -442 -224 -301 -422 -463
-773 -635 -162 -79 -332 -137 -496 -168 -100 -19 -126 -20 -192 -11 -90 13
-161 38 -210 75 -42 32 -92 108 -102 154 -9 42 13 62 120 109 44 19 100 44
125 55 25 12 86 34 135 50 124 40 386 181 435 234 31 33 45 64 73 155 63 200
78 262 84 344 8 113 7 113 -232 175 -38 10 -119 32 -180 50 -60 18 -132 38
-160 45 -27 7 -86 23 -130 35 -44 11 -98 25 -120 30 -89 19 -396 103 -495 134
-129 41 -254 77 -340 100 -36 9 -96 26 -135 37 -38 11 -105 29 -147 39 -43 11
-106 28 -140 39 -143 43 -185 55 -223 62 -22 4 -74 16 -116 28 -122 32 -234
51 -384 66 -153 16 -202 16 -345 4z m193 -684 c214 -20 336 -39 507 -75 80
-17 235 -49 345 -71 317 -63 662 -166 923 -277 76 -32 81 -53 20 -82 -57 -25
-334 -135 -423 -167 -85 -31 -257 -116 -360 -178 -98 -60 -184 -95 -315 -129
-95 -25 -153 -45 -234 -81 -52 -23 -64 -14 -181 140 -107 140 -211 250 -352
371 -172 149 -256 211 -407 305 -129 80 -176 118 -176 143 0 30 54 77 110 96
71 25 316 27 543 5z m4898 -66 c88 -30 171 -126 267 -309 72 -138 117 -259
108 -294 -12 -48 -45 -45 -206 21 -299 122 -344 144 -552 259 -112 63 -142 94
-134 138 8 40 36 68 104 104 144 76 323 111 413 81z"/>
<path d="M18115 6275 c-16 -8 -84 -35 -150 -60 -66 -26 -167 -66 -225 -90
-172 -72 -315 -130 -500 -203 -706 -282 -860 -357 -959 -468 -62 -70 -123
-184 -119 -222 3 -23 7 -27 34 -26 17 1 89 30 160 64 71 34 151 71 179 82 27
11 102 42 165 70 63 28 160 66 215 85 55 19 167 64 249 100 82 36 177 76 210
88 34 13 113 47 176 75 63 29 156 68 205 87 284 111 384 195 424 356 9 37 9
52 0 63 -14 17 -26 17 -64 -1z"/>
<path d="M13020 5936 c-99 -22 -174 -63 -237 -130 -77 -81 -132 -164 -140
-209 -5 -33 -3 -37 16 -37 12 0 59 18 104 40 105 50 188 62 362 55 137 -7 208
-24 225 -55 8 -14 -5 -30 -68 -91 -43 -41 -120 -111 -173 -156 -201 -174 -333
-338 -388 -483 -87 -223 -55 -349 110 -444 138 -79 419 -90 674 -25 153 39
351 156 503 296 70 66 47 96 -42 54 -152 -71 -379 -121 -576 -128 -258 -9
-420 21 -493 92 -59 57 -58 125 2 216 41 61 188 209 296 298 116 95 274 250
333 325 49 64 91 155 92 199 0 34 -24 83 -48 96 -10 5 -59 23 -110 40 -177 58
-321 74 -442 47z"/>
<path d="M5769 5625 c-158 -172 -281 -383 -265 -452 13 -50 142 -162 346 -298
234 -156 315 -201 352 -192 48 12 164 183 282 414 82 160 84 188 27 260 -76
96 -129 135 -381 277 -41 24 -102 59 -134 79 -93 57 -96 56 -227 -88z"/>
<path d="M12360 5217 c-8 -7 -44 -45 -80 -86 -55 -63 -275 -254 -428 -372
-182 -140 -457 -298 -847 -488 -325 -159 -349 -171 -464 -246 -103 -67 -127
-88 -116 -105 10 -16 43 -12 175 24 121 33 394 119 435 136 11 4 76 29 145 56
372 141 756 416 1003 716 66 81 217 332 217 361 0 20 -19 22 -40 4z"/>
<path d="M8670 3338 c-19 -5 -57 -13 -84 -18 -94 -17 -86 50 -87 -760 0 -393
2 -723 6 -732 24 -62 432 -103 576 -58 147 45 274 168 325 315 26 74 25 230
-3 316 -69 214 -142 296 -292 330 -80 17 -151 5 -242 -42 -123 -64 -115 -87
-110 286 2 215 0 329 -8 348 -11 29 -23 31 -81 15z m366 -787 c90 -41 117
-118 116 -332 0 -165 -15 -237 -58 -288 -30 -37 -71 -49 -184 -57 -68 -5 -92
-3 -116 9 -52 27 -56 53 -46 250 7 112 7 203 1 252 -18 145 17 185 161 185 61
0 96 -6 126 -19z"/>
<path d="M14190 3320 c-32 -11 -66 -31 -82 -49 l-28 -31 0 -250 c0 -276 0
-277 -64 -259 -60 17 -229 11 -302 -12 -38 -12 -76 -27 -85 -35 -8 -8 -20 -14
-25 -14 -18 0 -92 -85 -122 -140 -55 -102 -66 -152 -67 -300 0 -130 1 -138 35
-225 42 -110 58 -134 124 -179 81 -55 142 -78 210 -79 75 -1 119 14 182 58 62
44 96 45 133 4 33 -36 84 -50 152 -42 84 10 78 -33 84 624 7 697 1 903 -26
930 -24 24 -49 23 -119 -1z m-161 -741 c17 -6 36 -19 41 -29 15 -29 13 -611
-3 -631 -33 -43 -60 -50 -142 -38 -205 28 -238 83 -233 387 3 167 5 181 28
227 36 71 86 95 196 95 44 0 95 -5 113 -11z"/>
<path d="M5518 3313 c-32 -9 -55 -24 -70 -46 l-23 -32 3 -705 c4 -828 -8 -753
118 -758 108 -4 121 1 133 46 7 22 11 164 11 349 l0 312 30 35 c35 40 92 56
196 56 80 0 98 -9 126 -63 22 -41 23 -54 28 -374 6 -397 -4 -369 132 -366 69
1 94 5 107 17 14 15 16 55 19 309 5 400 -9 485 -93 569 -37 37 -107 65 -186
75 -70 8 -185 -31 -290 -100 -31 -20 -57 -13 -64 17 -3 11 -6 156 -7 321 -3
269 -5 304 -21 328 -15 23 -24 27 -60 26 -23 -1 -63 -8 -89 -16z"/>
<path d="M10600 3181 c-80 -9 -85 -12 -111 -62 -28 -55 -187 -451 -210 -521
-10 -31 -24 -69 -32 -85 -8 -15 -45 -117 -81 -226 -37 -109 -84 -242 -106
-295 -21 -53 -41 -116 -45 -140 -6 -38 -5 -41 12 -36 10 4 26 14 35 22 31 26
140 195 173 267 53 115 37 109 323 111 136 1 254 -2 263 -6 9 -5 30 -54 49
-112 64 -204 112 -286 185 -313 50 -20 134 -17 161 6 24 19 13 76 -40 217 -46
120 -102 287 -136 402 -10 36 -35 110 -55 165 -20 55 -51 143 -70 195 -18 52
-51 142 -73 200 -21 58 -42 116 -45 130 -4 14 -17 38 -29 53 -27 33 -66 39
-168 28z m-2 -253 c6 -7 22 -56 36 -108 13 -52 37 -129 51 -170 111 -313 116
-300 -125 -300 -140 0 -171 3 -184 16 -9 8 -16 20 -16 27 0 14 80 249 90 262
4 6 15 37 25 70 54 185 67 215 94 215 10 0 23 -6 29 -12z"/>
<path d="M2553 3165 c-35 -25 -42 -46 -53 -157 -5 -57 -16 -152 -25 -213 -8
-60 -21 -198 -30 -305 -17 -212 -40 -431 -55 -525 -12 -72 -13 -145 -2 -162
11 -18 51 -30 84 -25 63 9 65 22 88 537 12 272 24 438 34 453 12 20 52 14 63
-10 6 -13 29 -63 51 -113 22 -49 87 -187 145 -305 112 -232 147 -306 147 -314
0 -16 94 -194 112 -213 31 -33 80 -31 108 4 35 44 250 497 250 526 0 4 16 39
36 79 20 40 42 89 49 108 58 151 103 245 119 248 36 7 35 13 75 -373 46 -437
53 -493 62 -541 14 -72 33 -86 123 -92 41 -2 86 -2 101 2 26 7 27 8 22 74 -2
37 -14 130 -26 207 -12 77 -26 203 -31 280 -5 77 -12 160 -16 185 -4 25 -10
101 -14 170 -10 185 -39 400 -58 440 -14 27 -25 36 -57 43 -43 9 -113 2 -151
-15 -13 -6 -35 -27 -49 -47 -39 -58 -204 -417 -289 -631 -42 -107 -87 -215
-99 -240 -24 -50 -53 -62 -79 -33 -16 19 -95 189 -158 338 -20 50 -54 123 -74
163 -20 40 -45 95 -56 123 -11 27 -48 109 -83 182 -71 149 -79 156 -182 164
-45 3 -66 1 -82 -12z"/>
<path d="M11825 2740 c-249 -28 -426 -216 -443 -468 -5 -77 11 -212 28 -237 3
-5 13 -30 20 -55 20 -67 58 -114 125 -158 94 -61 149 -75 274 -70 158 8 291
60 331 131 26 46 3 53 -73 23 -52 -21 -82 -26 -149 -26 -114 0 -154 13 -209
69 -66 65 -73 98 -74 321 0 179 1 187 26 241 36 77 73 94 182 84 44 -4 118
-18 164 -31 104 -30 121 -30 132 -1 9 22 14 80 12 118 -2 39 -212 74 -346 59z"/>
<path d="M7075 2716 c-54 -25 -83 -52 -112 -105 -10 -19 -24 -36 -31 -39 -14
-4 -28 27 -37 79 -7 47 -34 59 -134 59 -120 0 -111 32 -110 -421 0 -211 4
-408 8 -438 10 -73 25 -82 125 -79 73 3 80 5 100 31 20 27 21 40 22 321 1 335
2 342 84 384 40 21 54 23 125 18 44 -3 86 -2 93 2 18 12 32 68 32 129 0 42 -4
55 -22 67 -32 23 -85 20 -143 -8z"/>
<path d="M7695 2716 c-210 -52 -269 -92 -217 -144 21 -21 21 -21 177 12 188
41 245 4 245 -160 0 -113 -2 -114 -164 -114 -191 0 -279 -38 -333 -143 -22
-43 -28 -69 -31 -147 -4 -83 -1 -102 18 -143 52 -109 169 -153 302 -113 52 15
118 61 118 82 0 7 -22 20 -50 28 -115 34 -145 77 -139 199 4 63 9 79 33 112
49 64 181 103 226 67 21 -17 23 -30 28 -153 4 -122 3 -140 -16 -182 l-21 -47
27 -14 c15 -8 40 -28 56 -45 43 -45 113 -65 176 -52 92 20 164 70 145 102 -4
5 -24 17 -46 26 -68 27 -69 33 -68 373 l1 300 -30 64 c-17 36 -40 69 -52 76
-85 45 -239 52 -385 16z"/>
<path d="M12705 2725 c-79 -15 -183 -47 -235 -73 -42 -21 -51 -59 -21 -86 19
-17 23 -17 108 4 119 30 252 33 282 6 30 -27 44 -90 36 -160 -10 -92 -14 -96
-98 -96 -184 -1 -307 -30 -375 -89 -39 -34 -73 -124 -74 -194 -2 -99 18 -163
64 -208 57 -56 110 -72 210 -67 75 4 90 8 155 46 39 23 80 42 91 42 11 0 41
-18 67 -39 59 -49 105 -61 181 -49 68 10 119 33 139 60 19 28 9 45 -40 67 -23
10 -46 25 -51 32 -5 8 -11 156 -14 329 l-5 315 -31 55 c-35 62 -71 87 -153
106 -68 17 -143 16 -236 -1z m162 -515 c8 -16 13 -68 13 -143 0 -118 0 -119
-29 -148 -27 -27 -35 -29 -106 -29 -74 0 -78 1 -110 33 -38 38 -50 91 -40 167
14 101 85 152 205 147 47 -2 56 -5 67 -27z"/>
<path d="M16235 2726 c-69 -19 -112 -39 -170 -80 -27 -20 -54 -36 -59 -36 -14
0 -35 33 -36 57 0 34 -29 43 -133 43 -68 0 -98 -4 -106 -14 -18 -21 -11 -900
7 -918 9 -9 41 -13 104 -11 142 2 132 -24 138 371 6 367 7 374 80 408 52 25
173 31 205 10 58 -38 58 -39 62 -404 3 -278 6 -340 18 -359 14 -21 23 -23 99
-23 112 0 125 10 136 110 5 41 9 189 10 328 0 139 5 263 9 275 12 30 39 53 86
70 101 38 185 27 222 -29 16 -25 18 -61 23 -376 6 -414 -4 -383 130 -383 139
0 129 -29 132 385 2 357 -1 392 -42 472 -48 93 -157 131 -290 104 -75 -16
-182 -62 -216 -94 -11 -11 -31 -25 -44 -32 -22 -12 -27 -9 -72 40 -80 85 -184
115 -293 86z"/>
<path d="M4640 2724 c-56 -11 -127 -38 -162 -61 -129 -87 -210 -377 -164 -588
29 -137 85 -215 199 -276 56 -30 71 -33 167 -37 130 -5 227 14 327 63 92 46
133 80 133 111 0 37 -22 38 -86 6 -80 -39 -97 -43 -233 -43 -136 -1 -170 9
-219 66 -44 50 -54 77 -55 157 -2 102 0 103 196 117 226 17 333 30 361 42 60
28 60 108 -2 233 -23 45 -60 101 -83 125 -65 66 -114 83 -244 87 -60 1 -121 0
-135 -2z m141 -119 c16 -9 46 -42 67 -73 29 -46 37 -69 40 -117 6 -85 0 -88
-167 -96 -163 -8 -171 -5 -171 76 0 128 67 225 156 225 25 0 58 -7 75 -15z"/>
<path d="M14913 2720 c-24 -5 -62 -17 -85 -28 -127 -56 -228 -256 -228 -451 0
-216 54 -337 189 -427 57 -38 79 -46 149 -56 126 -18 257 5 381 69 105 54 147
93 131 124 -15 27 -38 24 -109 -13 -58 -30 -69 -32 -194 -36 -118 -4 -139 -2
-179 16 -67 29 -100 90 -106 191 -6 115 -11 112 209 128 285 20 357 36 381 88
17 37 1 107 -44 197 -48 95 -115 167 -173 186 -49 17 -265 24 -322 12z m192
-126 c34 -22 95 -148 95 -196 0 -59 -7 -62 -157 -74 -170 -13 -177 -10 -181
69 -6 106 28 174 102 209 48 22 100 19 141 -8z"/>
<path d="M18167 2711 c-21 -5 -43 -13 -49 -19 -7 -7 -15 -72 -19 -164 -7 -170
-14 -205 -66 -361 -40 -120 -64 -151 -94 -119 -21 22 -80 163 -184 438 -14 36
-39 93 -57 126 -44 82 -85 101 -204 96 -113 -4 -118 -11 -74 -96 19 -36 43
-78 53 -93 41 -58 232 -519 267 -644 12 -44 26 -92 30 -106 6 -18 2 -39 -11
-68 -44 -100 -224 -297 -338 -371 -42 -27 -86 -57 -98 -65 -61 -42 13 -75 123
-56 171 30 281 152 471 522 39 76 100 182 136 236 84 128 115 192 166 336 77
218 102 367 67 396 -19 16 -73 21 -119 12z"/>
</g>
</svg>
